<?xml version="1.0" encoding="UTF-8"?>
<svg xmlns="http://www.w3.org/2000/svg" width="151" height="100" viewBox="0 0 151 100" fill="none">
  <path d="M150.441 89.4707H0.441406V99.9987H150.441V89.4707Z" fill="#F4CA00"></path>
  <path d="M102.7 10.3394L42.7363 70.3027L44.8576 72.4241L104.821 12.4607L102.7 10.3394Z" fill="white"></path>
  <path d="M93.2197 37.9709C92.9083 35.2144 92.4105 32.4822 91.7297 29.793L53.2236 68.3C56.6967 72.9736 61.555 76.4332 67.1075 78.1866C72.66 79.9401 78.624 79.8982 84.1514 78.067C89.6787 76.2358 94.488 72.7084 97.8952 67.9866C101.302 63.2647 103.134 57.5888 103.13 51.766C103.13 38.536 96.8217 31.412 96.8217 31.412C96.7198 32.698 96.346 33.9477 95.7251 35.0784C95.1041 36.2091 94.2502 37.195 93.2197 37.9709Z" fill="white"></path>
  <path d="M102.7 10.3394L42.7363 70.3027L44.8576 72.4241L104.821 12.4607L102.7 10.3394Z" fill="white"></path>
  <path d="M88.3718 20.423C86.5732 16.6475 84.2079 13.1694 81.3578 10.109C77.0818 6.23201 72.8008 1.92102 67.1578 -0.000976562C78.2038 24.778 57.6898 39.266 57.6898 39.266C56.6446 37.6133 55.7911 35.8469 55.1458 34.001C50.8397 38.9796 48.2375 45.204 47.7188 51.766C47.7263 54.5041 48.1426 57.2257 48.9538 59.8409L88.3718 20.423Z" fill="white"></path>
</svg>
