<?xml version="1.0" encoding="UTF-8"?>
<!-- Generator: Adobe Illustrator 26.1.0, SVG Export Plug-In . SVG Version: 6.00 Build 0)  -->
<svg xmlns="http://www.w3.org/2000/svg" xmlns:xlink="http://www.w3.org/1999/xlink" version="1.1" id="Ebene_1" x="0px" y="0px" viewBox="0 0 150 100" style="enable-background:new 0 0 150 100;" xml:space="preserve">
<style type="text/css">
	.st0{fill:#F4CA00;}
	.st1{fill:#FFFFFF;}
</style>
<rect y="89.472" class="st0" width="150" height="10.528"></rect>
<g>
	<rect x="-484.141" y="-1063.115" width="150" height="10.528"></rect>
	
		<rect x="-453.204" y="-1112.705" transform="matrix(0.7071 -0.7071 0.7071 0.7071 665.4189 -615.9466)" width="84.801" height="3"></rect>
	<path d="M-391.363-1114.615c-0.314-2.762-0.811-5.497-1.49-8.178l-38.507,38.507c5.05,6.772,13.104,11.171,22.201,11.171   c15.301,0,27.705-12.404,27.705-27.705c0-13.231-6.308-20.354-6.308-20.354C-387.967-1118.573-389.278-1116.184-391.363-1114.615z"></path>
	
		<rect x="-453.204" y="-1112.705" transform="matrix(0.7071 -0.7071 0.7071 0.7071 665.4189 -615.9466)" width="84.801" height="3"></rect>
	<path d="M-396.211-1132.162c-1.786-3.705-4.082-7.187-7.014-10.314c-4.275-3.877-8.557-8.188-14.198-10.11   c11.046,24.78-9.469,39.268-9.469,39.268c-1.045-1.653-1.898-3.42-2.544-5.266c-4.306,4.979-6.908,11.203-7.427,17.766   c0,2.814,0.452,5.517,1.235,8.075L-396.211-1132.162z"></path>
</g>
<g>
	<g>
		<path class="st1" d="M110.249,23.31h-0.566C109.331,10.378,98.745,0,85.727,0h0C75.821,0,67.32,6.009,63.666,14.579    c-6.242-4.657-15.097-3.628-20.07,2.465h0c-1.538,1.885-2.518,4.038-2.981,6.266h-0.866c-8.081,0-14.632,6.551-14.632,14.632v0    c0,8.081,6.551,14.632,14.632,14.632h70.499c8.081,0,14.632-6.551,14.632-14.632v0C124.881,29.861,118.33,23.31,110.249,23.31z"></path>
		<polygon class="st1" points="46.432,55.574 41.646,60.36 44.593,63.306 52.325,55.574   "></polygon>
		<polygon class="st1" points="63.669,55.574 50.124,69.119 53.07,72.066 69.562,55.574   "></polygon>
		<polygon class="st1" points="98.144,55.574 81.544,72.174 84.49,75.12 104.036,55.574   "></polygon>
		<g>
			<polygon class="st1" points="72.72,69.653 86.799,55.574 80.907,55.574 69.774,66.707    "></polygon>
			
				<rect x="58.765" y="72.509" transform="matrix(0.7071 -0.7071 0.7071 0.7071 -33.7555 67.6923)" class="st1" width="12.139" height="4.167"></rect>
		</g>
	</g>
</g>
</svg>
