<?xml version="1.0" encoding="UTF-8"?>
<!-- Generator: Adobe Illustrator 26.1.0, SVG Export Plug-In . SVG Version: 6.00 Build 0)  -->
<svg xmlns="http://www.w3.org/2000/svg" xmlns:xlink="http://www.w3.org/1999/xlink" version="1.1" id="Ebene_1" x="0px" y="0px" viewBox="0 0 150 100" style="enable-background:new 0 0 150 100;" xml:space="preserve">
<style type="text/css">
	.st0{fill:#F4CA00;}
	.st1{fill:#FFFFFF;}
</style>
<rect y="89.472" class="st0" width="150" height="10.528"></rect>
<g>
	<rect x="-484.141" y="-1063.115" width="150" height="10.528"></rect>
	
		<rect x="-453.204" y="-1112.705" transform="matrix(0.7071 -0.7071 0.7071 0.7071 665.4189 -615.9466)" width="84.801" height="3"></rect>
	<path d="M-391.363-1114.615c-0.314-2.762-0.811-5.497-1.49-8.178l-38.507,38.507c5.05,6.772,13.104,11.171,22.201,11.171   c15.301,0,27.705-12.404,27.705-27.705c0-13.231-6.308-20.354-6.308-20.354C-387.967-1118.573-389.278-1116.184-391.363-1114.615z"></path>
	
		<rect x="-453.204" y="-1112.705" transform="matrix(0.7071 -0.7071 0.7071 0.7071 665.4189 -615.9466)" width="84.801" height="3"></rect>
	<path d="M-396.211-1132.162c-1.786-3.705-4.082-7.187-7.014-10.314c-4.275-3.877-8.557-8.188-14.198-10.11   c11.046,24.78-9.469,39.268-9.469,39.268c-1.045-1.653-1.898-3.42-2.544-5.266c-4.306,4.979-6.908,11.203-7.427,17.766   c0,2.814,0.452,5.517,1.235,8.075L-396.211-1132.162z"></path>
</g>
<g>
	<g>
		<g>
			<polygon class="st1" points="60.327,79.472 74.094,77.395 72.798,72.547    "></polygon>
			<polygon class="st1" points="52.6,79.472 34.438,64.861 30.694,72.067    "></polygon>
			<polygon class="st1" points="52.598,76.494 48.442,65.262 45.106,67.279    "></polygon>
		</g>
		<path class="st1" d="M116.121,3.142c-4.248-4.248-11.134-4.248-15.382,0L66.474,37.407l-11.3,42.063l60.946-60.946    C120.368,14.276,120.368,7.39,116.121,3.142z"></path>
	</g>
</g>
</svg>
