<?xml version="1.0" encoding="UTF-8"?>
<!-- Generator: Adobe Illustrator 26.1.0, SVG Export Plug-In . SVG Version: 6.00 Build 0)  -->
<svg xmlns="http://www.w3.org/2000/svg" xmlns:xlink="http://www.w3.org/1999/xlink" version="1.1" id="Ebene_1" x="0px" y="0px" viewBox="0 0 150 100" style="enable-background:new 0 0 150 100;" xml:space="preserve">
<style type="text/css">
	.st0{fill:#F4CA00;}
	.st1{fill:#FFFFFF;}
</style>
<rect y="89.472" class="st0" width="150" height="10.528"></rect>
<g>
	<g>
		<g>
			<g>
				<polygon class="st1" points="126.012,48.067 118.864,48.826 111.716,49.585 114.633,43.015 117.55,36.445 121.781,42.256           "></polygon>
				<polygon class="st1" points="60.394,18.933 67.543,18.174 74.691,17.415 71.774,23.985 68.857,30.555 64.626,24.744     "></polygon>
			</g>
			<g>
				<polygon class="st1" points="106.102,67 100.511,62.482 94.92,57.964 101.628,55.381 108.336,52.798 107.219,59.899     "></polygon>
				<polygon class="st1" points="80.305,0 85.896,4.518 91.486,9.036 84.778,11.619 78.07,14.202 79.187,7.101     "></polygon>
			</g>
			<g>
				<polygon class="st1" points="78.636,66.309 77.877,59.161 77.119,52.013 83.688,54.93 90.258,57.847 84.447,62.078     "></polygon>
				<polygon class="st1" points="107.771,0.691 108.529,7.839 109.288,14.987 102.718,12.07 96.148,9.153 101.959,4.922     "></polygon>
			</g>
			<g>
				<polygon class="st1" points="126.703,20.601 122.185,26.192 117.667,31.783 115.084,25.075 112.501,18.367 119.602,19.484           "></polygon>
				<polygon class="st1" points="59.703,46.399 64.221,40.808 68.739,35.217 71.322,41.925 73.905,48.633 66.804,47.516     "></polygon>
			</g>
		</g>
		<circle class="st1" cx="93.203" cy="33.5" r="17.846"></circle>
	</g>
	<polygon class="st1" points="65.246,57.715 49.382,73.58 33.184,57.382 42.103,57.382 42.103,54.819 30.238,54.819 27.675,54.819    27.675,57.382 27.675,69.247 30.238,69.247 30.238,60.328 49.382,79.472 68.193,60.661  "></polygon>
</g>
</svg>
