<?xml version="1.0" encoding="UTF-8"?>
<!-- Generator: Adobe Illustrator 26.1.0, SVG Export Plug-In . SVG Version: 6.00 Build 0)  -->
<svg xmlns="http://www.w3.org/2000/svg" xmlns:xlink="http://www.w3.org/1999/xlink" version="1.1" id="Ebene_1" x="0px" y="0px" viewBox="0 0 150 100" style="enable-background:new 0 0 150 100;" xml:space="preserve">
<style type="text/css">
	.st0{fill:#F4CA00;}
	.st1{fill:#FFFFFF;}
</style>
<g>
	<rect x="0" y="89.472" class="st0" width="150" height="10.528"></rect>
</g>
<g>
	<path class="st1" d="M61.045,43.904c1.658-0.426,3.253-1.058,4.325-2.445c0.637-0.824,0.99-0.735,1.624-0.056   c2.598,2.784,4.046,6.144,5.178,9.72c1.567,4.949,1.102,9.98,0.924,15.167h-0.002v13.182h3.514v-13.18h0.002   c-0.016-2.181,0.133-4.35,0.369-6.521c0.936-8.614,4.155-16.346,8.893-23.519c0.462-0.699,0.854-0.678,1.502-0.295   c1.204,0.713,2.497,1.264,3.87,1.552c10.504,2.208,19.485-0.35,26.458-8.727c6.659-7.999,9.81-17.539,11.741-27.579   c0.201-1.043-0.241-1.201-1.146-1.196c-5.591,0.03-11.183-0.058-16.772,0.037c-5.205,0.088-10.19,1.177-14.827,3.684   c-6.693,3.619-11.113,9.205-14.12,16.051c-1.929,4.391-2.046,8.671,0.84,12.727c0.431,0.605,0.156,0.932-0.149,1.376   c-1.906,2.782-3.574,5.697-5.005,8.756c-1.05,2.245-1.848,4.587-2.744,6.938c-0.096-0.109-0.144-0.14-0.158-0.182   c-1.586-4.725-3.789-9.056-7.802-12.231c-0.352-0.278-0.296-0.669-0.408-1.026c-2.291-7.316-6.777-12.382-14.62-13.683   c-4.242-0.704-8.563-0.182-12.846-0.274c-1.015-0.022-0.548,0.733-0.469,1.129c0.996,5.043,2.635,9.84,5.583,14.114   C48.613,42.958,54.921,45.477,61.045,43.904z"></path>
</g>
</svg>
