<?xml version="1.0" encoding="UTF-8"?>
<svg xmlns="http://www.w3.org/2000/svg" width="151" height="100" viewBox="0 0 151 100" fill="none">
  <path d="M150.429 89.3082L0.441406 89.4834L0.453717 99.9997L150.441 99.8246L150.429 89.3082Z" fill="#F4CA00"></path>
  <path d="M40.0547 44.1053C40.0466 37.1149 42.1137 30.2789 45.9947 24.4621C49.8756 18.6452 55.3961 14.1086 61.858 11.4259C68.3198 8.74328 75.4329 8.0351 82.2978 9.39085C89.1626 10.7466 95.4708 14.1055 100.425 19.0427C105.379 23.9799 108.756 30.2736 110.129 37.1281C111.502 43.9827 110.81 51.0902 108.14 57.5517C105.469 64.0132 100.941 69.5385 95.1273 73.4291C89.3136 77.3197 82.4755 79.4006 75.4778 79.4089C66.0972 79.4094 57.0995 75.6928 50.4586 69.0743C43.8178 62.4559 40.0762 53.4762 40.0547 44.1053ZM103.92 44.0313C103.913 38.4035 102.236 32.9041 99.1012 28.2283C95.9661 23.5524 91.5133 19.9104 86.306 17.7626C81.0988 15.6149 75.3709 15.058 69.8468 16.1622C64.3227 17.2665 59.2505 19.9823 55.2715 23.9664C51.2926 27.9505 48.5856 33.0238 47.493 38.5448C46.4004 44.0657 46.9712 49.7863 49.1332 54.9832C51.2952 60.1801 54.9513 64.6199 59.6392 67.741C64.3271 70.8621 69.8362 72.5244 75.4698 72.5176C83.0212 72.5002 90.2573 69.4912 95.5908 64.1509C100.924 58.8106 103.92 51.5749 103.92 44.0313Z" fill="white"></path>
  <path d="M46.0518 17.5062L49.2393 20.6904L52.0429 17.8897L48.8554 14.7055L46.0518 17.5062Z" fill="white"></path>
  <path d="M40.9161 16.2884L44.1035 19.4727L50.833 12.7504L47.6455 9.56612L40.9161 16.2884Z" fill="white"></path>
  <path d="M102.03 14.7015L98.8428 17.8857L101.646 20.6865L104.834 17.5022L102.03 14.7015Z" fill="white"></path>
  <path d="M103.249 9.57268L100.062 12.7568L106.791 19.4793L109.978 16.2952L103.249 9.57268Z" fill="white"></path>
  <path d="M73.4609 4.52144V9.02441H77.426V4.52144H73.4609Z" fill="white"></path>
  <path d="M73.4619 27.437V44.0625H77.4269V27.437H73.4619Z" fill="white"></path>
  <path d="M90.1055 40.1025H73.4629V44.0631H90.1055V40.1025Z" fill="white"></path>
  <path d="M66.9512 -4.76837e-05V4.50293H83.9228V-4.76837e-05H66.9512Z" fill="white"></path>
</svg>
